<?xml version="1.0" encoding="utf-8"?>
<!-- Generator: Adobe Illustrator 26.0.3, SVG Export Plug-In . SVG Version: 6.00 Build 0)  -->
<svg version="1.0" id="Layer_1" xmlns="http://www.w3.org/2000/svg" xmlns:xlink="http://www.w3.org/1999/xlink" x="0px" y="0px"
	 viewBox="0 0 674.9 510" style="enable-background:new 0 0 674.9 510;" xml:space="preserve">
<style type="text/css">
	.st0{fill:#081F40;}
	.st1{fill:#FED101;}
</style>
<g>
	<path class="st0" d="M163.8,297.4c0-6.9-0.2-15.2-0.4-17.4c-1.6-0.4-4-0.8-6.1-1.1l-0.2-1.6c2.2,0.2,7.1,0.3,13,0.3
		c3.5,0,9.5-0.1,11.4-0.3l-0.4,1.6c-2.1,0.2-5.5,0.6-8,1.1c-0.2,1.3-0.4,11-0.4,17.7V308c0,16.3,6.9,21.9,15.3,21.9
		c4,0.3,8-1,11-3.7c4.2-4,5.2-10.8,5.2-20v-7.1c0-2.5,0-16.5-0.4-19.1c-1.8-0.3-6.4-0.9-8.4-1.1l-0.6-1.6c1.9,0.1,7.7,0.3,12.5,0.3
		c4,0,8.1-0.2,9.4-0.3l-0.5,1.6c-1.3,0.3-3.4,0.6-5.4,1.1c-0.2,1.2-0.4,10.8-0.4,12.8v3.7c0,3,0.2,6.7,0.2,9.5
		c0,8.8-1.6,16.1-7.5,21.3c-4.5,3.8-10.2,5.7-16.1,5.4c-15.9,0-23.3-9.9-23.3-23.3L163.8,297.4z"/>
	<path class="st0" d="M252.1,307.1v-1.7c1.1,0,6.1,0.3,9.2,0.3c2.6,0,7.3-0.3,7.8-0.3v1.5c-3.7,1.4-3.7,1-3.7,11.7V329
		c-6.6,1.6-13.1,3.6-20.1,3.6c-17.2,0-29.7-11.3-29.7-27.9s13.9-28.1,30.8-28.1c5.6,0.2,11.1,1.2,16.4,3l0.6,10.2h-1.6
		c-0.7-5.5-6.3-10.6-16.4-10.6c-11.8,0-20.8,10.1-20.8,24.9s8,25.7,21.6,25.7c4,0,7.9-1,11.5-2.7v-9.2
		C257.9,307.4,257.9,308.4,252.1,307.1"/>
	<path class="st0" d="M274,297.4c0-6.9-0.1-15.2-0.4-17.4c-1.6-0.4-4-0.8-6.1-1.1l-0.2-1.6c2.2,0.2,7.1,0.3,13,0.3
		c3.5,0,9.4-0.1,11.4-0.3l-0.4,1.6c-2.1,0.2-5.5,0.6-8,1.1c-0.2,1.3-0.4,11-0.4,17.7V308c0,16.3,6.9,21.9,15.2,21.9
		c4,0.3,8-1,11.1-3.7c4.1-3.9,5.1-10.7,5.1-19.9v-7.2c0-2.5,0-16.5-0.4-19.1c-1.8-0.3-6.4-0.9-8.4-1.1l-0.5-1.6
		c1.9,0.1,7.7,0.3,12.5,0.3c4,0,8.1-0.2,9.4-0.3l-0.5,1.6c-1.3,0.3-3.4,0.6-5.4,1.1c-0.2,1.2-0.4,10.8-0.4,12.8v3.7
		c0,3,0.2,6.7,0.2,9.5c0,8.8-1.6,16.1-7.5,21.3c-4.5,3.8-10.2,5.7-16.1,5.4c-15.9,0-23.2-9.9-23.2-23.3L274,297.4z"/>
	<path class="st0" d="M324.9,319.4h1.7c0.8,4.4,3.2,10.1,14.3,10.1c7,0,12.6-4.8,12.6-11.1c0-13-27.3-9-27.3-26.3
		c0-8.5,8.2-15.5,19-15.5c4.1,0.1,8.2,0.8,12.1,2.1l0.4,9.6h-1.7c-0.7-3.8-2-8.8-11-8.8c-6.8,0-12.3,4.1-12.3,9.8
		c0,13.2,27.5,8.8,27.5,26.5c0,9.1-8.2,16.9-20.3,16.9c-4.9-0.3-9.8-1.4-14.4-3.1L324.9,319.4z"/>
	<path class="st0" d="M359.7,287.7c0.5-3.4,0.8-6.9,1-10.4c3.5,0,15,0.3,22.6,0.3s19.2-0.3,22.7-0.3c0,4.4,0.4,8.4,0.4,10.4h-1.7
		c-1.5-7.4-3.5-7.4-17.2-7.4c0,2.2-0.4,6.7-0.4,11v26.5c0,11.4,0,11.9,6.1,12.4v1.5c-3.3,0-6.6-0.3-9.9-0.3s-6.6,0.2-9.9,0.3v-1.4
		c6.1-0.6,6.1-0.5,6.1-12.4v-26.4c0-4.4-0.3-9-0.3-11.1c-13.4,0-15.9,0-17.5,7.3L359.7,287.7z"/>
	<path class="st0" d="M428.8,277.4c0.9,3.4,5.9,18,8.8,26c3,8.7,6.5,17.3,10.5,25.6c2.2,0.5,4.4,0.8,6.8,1.1l0.2,1.6
		c-0.9-0.1-8.8-0.3-12.8-0.3c-2.2,0-11,0.1-13,0.3l0.4-1.6c2.6-0.2,5.2-0.5,7.8-1.1c-1.4-4-6.9-20.3-8.1-22.5
		c-2.7,0-14.9,0.5-17.8,1c-2.2,7.1-4,14.3-5.4,21.5c2.2,0.5,4.4,0.9,6.6,1.1l0.3,1.6c-2.4-0.1-9.4-0.3-11.6-0.3s-7.1,0.1-8.9,0.3
		l0.2-1.6c2.2-0.2,4.4-0.6,6.6-1.1c2.8-4.9,18.1-46.2,19.1-49.1c-2-0.5-4-0.8-6.1-1v-1.6c2.3,0.1,8.8,0.3,10,0.3L428.8,277.4z
		 M421.1,281.2h-0.1c-2.4,6.8-7.4,20.1-8.2,22.7l16.2,0.3C427.2,299.2,422.3,285.5,421.1,281.2z"/>
	<path class="st0" d="M505.8,292.3v40.4l-3.1-0.4l-38.1-43.6v26.6c0,12.9,0,13.9,5.7,14.9v1.5c-2.7,0-5.4-0.3-8-0.3
		s-5.1,0.2-7.6,0.3v-1.4c5.6-1,6.1-2,6.1-14.9v-27.5c0-6.8-2.6-8-7.8-9v-1.5c2,0,4.2,0.3,6.2,0.3s4.1-0.2,6.2-0.3
		c1.8,2.6,3.7,5.1,5.9,7.4l30.7,35.3v-27.7c0-13.1,0-12.2-6.6-13.5v-1.5c2.7,0,5.4,0.3,8,0.3s5-0.2,7.5-0.3v1.5
		C507,279.4,505.7,280.2,505.8,292.3"/>
	<path class="st0" d="M188.4,359.3c0-3.4,0-7.5-0.2-8.6c-0.8-0.2-2-0.4-3-0.5v-0.8c1.1,0,3.5,0.2,6.4,0.2c1.8,0,4.7,0,5.7-0.2
		l-0.2,0.8c-1,0.1-2.7,0.3-4,0.5c0,0.6-0.2,5.5-0.2,8.8v5.1c0,8.1,3.4,10.8,7.5,10.8c2,0.2,4-0.5,5.5-1.8c2.1-1.9,2.6-5.3,2.6-9.9
		v-3.5c0-1.2,0-8.2-0.2-9.5c-0.9-0.1-3.2-0.5-4.2-0.5l-0.3-0.8c0.9,0,3.8,0.2,6.2,0.2c1.6,0.1,3.1,0,4.6-0.2l-0.2,0.8
		c-0.7,0.1-1.7,0.3-2.7,0.5c-0.1,0.6-0.2,5.3-0.2,6.4v6.5c0,4.4-0.8,8-3.8,10.6c-2.2,1.9-5.1,2.9-8,2.7c-7.9,0-11.5-4.9-11.5-11.6
		L188.4,359.3z"/>
	<path class="st0" d="M249.3,356.6v20.2l-1.6-0.2l-19.1-21.8v13.3c0,6.4,0,7,2.9,7.5v0.8c-1.4,0-2.7-0.1-4-0.1c-1.3,0-2.5,0-3.8,0.1
		v-0.7c2.8-0.5,3-1,3-7.5v-13.7c0-3.4-1.3-4-3.9-4.5v-0.8c1,0,2.2,0.1,3.1,0.1c1,0,2.1,0,3.1-0.1c0.9,1.3,1.9,2.6,3,3.7l15.4,17.5
		v-13.8c0-6.6,0-6.1-3.3-6.8v-0.8c1.3,0,2.7,0.2,4,0.2c1.3,0,2.5,0,3.8-0.2v0.8C249.9,350.1,249.3,350.6,249.3,356.6"/>
	<path class="st0" d="M264.4,375.6c2.5-0.4,2.5-0.4,2.5-6.2v-13.2c0-5.5,0-5.8-2.5-6.2v-0.8c0.5,0,3,0.1,4.4,0.1
		c1.4,0,3.9-0.1,4.4-0.1v0.8c-2.5,0.4-2.5,0.6-2.5,6.2v13.2c0,5.5,0,5.8,2.5,6.2v0.8c-0.5,0-2.9-0.1-4.4-0.1s-4,0.1-4.4,0.1V375.6z"
		/>
	<path class="st0" d="M284.6,349.1c1.6,0,3.2,0.1,4.7,0.1c1.5,0,3,0,4.5-0.1v0.8c-1,0.2-2.3,0.3-2.3,1.5c0.9,3,2,5.9,3.3,8.8
		l4.6,10.8l4.1-10.8c1.2-2.9,2.2-5.9,3-8.9c0-0.8-1-1-2-1.3v-0.8c1.3,0,2.6,0.1,4,0.1c1.2,0,2.3,0,3.5-0.1v0.8
		c-2.2,0.3-4.5,6-6.3,10.3l-7,16.8h-0.9l-6.8-16.8c-1.8-4.2-4.2-10.1-6.2-10.3L284.6,349.1z"/>
	<path class="st0" d="M322.7,375.6c2.5-0.4,2.5-0.9,2.5-6.2v-13.2c0-5.7,0-5.9-2.5-6.3v-0.8h16.6l0.5,4.4l-0.7,0.1c-0.6-2-1.1-3-6-3
		c-2.3,0-3.9,0.2-4.1,0.2v10.6h4.5c4,0,4.1-0.6,4.4-2.7h0.8c0,0.4-0.2,2.8-0.2,3.5v3.3h-0.8c-0.2-2.1-0.1-2.5-4.4-2.5h-4.5v11.4
		c2,0.1,4,0.2,6,0.2c4.4,0,5-2.2,5.6-3.5h0.8l-1.3,5.1c-1.6,0-4.4-0.1-8.1-0.1c-4.6,0-8.8,0.1-9.2,0.1L322.7,375.6z"/>
	<path class="st0" d="M352.7,375.6c2.5-0.3,2.5-0.6,2.5-6.2v-15.7c0-3.5-0.5-3.5-2.5-3.8v-0.8c1.5,0,3,0.1,4.4,0.1
		c1,0,3.3-0.3,5-0.3c5.6,0,9.8,2.7,9.8,7c0,3.5-2.7,6.4-6.2,6.6c3.5,3,8,11.7,9.5,12.5c0.6,0.2,1.2,0.4,1.8,0.5v0.8
		c-0.7,0-1.6-0.1-2.5-0.1c-1.1,0-2.2,0-3.3,0.1c-1.5-1.8-6.2-9.7-8-11.5c-1-1.2-2.6-1.8-4.2-1.7v6.1c0,5.2,0,5.9,2.6,6.2v0.8
		c-0.9,0-3-0.1-4.4-0.1s-3.1,0.1-4.4,0.2L352.7,375.6z M358.9,350.8V362c6.7,0.8,8.9-2.2,8.9-5.7S365.4,349.1,358.9,350.8z"/>
	<path class="st0" d="M387,370.1h0.9c0.4,2.2,1.6,5,7.1,5c3.3,0.2,6.1-2.2,6.3-5.5v0c0-6.6-13.6-4.4-13.6-13.1
		c0-4.2,4.1-7.8,9.5-7.8c2,0.1,4.1,0.4,6,1l0.2,4.8h-0.9c-0.4-1.9-1-4.4-5.5-4.4c-3.4,0-6.1,2.1-6.1,4.9c0,6.6,13.8,4.4,13.8,13.1
		c0,4.6-4.1,8.5-10.1,8.5c-2.5-0.2-4.9-0.7-7.2-1.6L387,370.1z"/>
	<path class="st0" d="M417.1,375.6c2.5-0.4,2.5-0.4,2.5-6.2v-13.2c0-5.5,0-5.8-2.5-6.2v-0.8c0.5,0,2.9,0.1,4.4,0.1s3.9-0.1,4.4-0.1
		v0.8c-2.5,0.4-2.5,0.6-2.5,6.2v13.2c0,5.5,0,5.8,2.5,6.2v0.8c-0.5,0-2.9-0.1-4.4-0.1s-4,0.1-4.4,0.1V375.6z"/>
	<path class="st0" d="M436.9,354.3c0.2-1.7,0.4-3.5,0.5-5.2c1.8,0,7.5,0.1,11.3,0.1s9.6-0.1,11.4-0.1c0,2.2,0.2,4.2,0.2,5.2h-0.9
		c-0.8-3.7-1.8-3.7-8.6-3.7c0,1.1-0.2,3.4-0.2,5.5v13.2c0,5.7,0,5.9,3,6.2v0.9c-1.7,0-3.3-0.1-5-0.1s-3.3,0-5,0.1v-0.7
		c3-0.3,3-0.3,3-6.2v-13.1c0-2.2-0.1-4.5-0.1-5.5c-6.7,0-8,0-8.8,3.7L436.9,354.3z"/>
	<path class="st0" d="M470,349.9v-0.8c0.4,0,2.9,0.1,4.4,0.1s3.9-0.1,4.4-0.1v0.8c-0.7,0.2-1.8,0.4-1.8,1c0.2,0.8,0.5,1.5,1,2.2
		l5,8.4l4.9-8.5c0.4-0.7,0.7-1.4,0.9-2.2c0-0.7-1.1-0.8-2.1-0.9v-0.8c0.1,0,2.2,0.1,3.4,0.1s3.2-0.1,3.3-0.1v0.8
		c-1.3,0.1-2.4,1.5-3.2,2.8l-6.5,10.6v8.2c0,3.6,0.7,3.8,3.1,4.2v0.7c-0.1,0-3.3-0.1-5-0.1s-4.1,0.1-4.7,0.1v-0.7
		c2.1-0.3,2.8,0,2.8-4.4v-8l-5.8-9.2c-0.8-1.9-2.3-3.3-4.2-4.1"/>
	<path class="st0" d="M123.6,304c1-3.5,9.4-26.2,11.4-30.3c1.2,2.2,8.8,23.9,11,30.7L123.6,304z M167,336.9
		c-4.8-9.3-11-26.1-13.8-33.8c-3.9-10.5-9.1-26.2-10.5-31.1l-0.9-2.4h-5.6c-1.7,0-9.5-0.2-12.5-0.4v1.6c2.7,0.3,5.4,0.7,8.1,1.3
		c-1.5,4.4-21.4,58.2-25,64.9c-2.8,0.6-5.7,1.1-8.6,1.4l-0.3,1.6c2.3-0.2,9-0.4,11.1-0.4c2.9,0,11,0.2,13.1,0.4l-0.4-1.6
		c-2.6-0.3-5.1-0.8-7.6-1.4c1.2-8.2,7.2-26.8,8-29.1c3.7-0.5,20.9-1.2,24.3-1.2c1.6,3.4,8.8,24.6,10.6,30.3
		c-3.3,0.7-6.7,1.2-10.1,1.4l-0.5,1.6c2.7-0.2,14-0.4,15.6-0.4c2.8,0,12.9,0.2,13.9,0.4l-0.3-1.6c-3-0.4-5.9-0.8-8.6-1.4L167,336.9z
		"/>
	<path class="st0" d="M524.4,303.2c1-3.5,9.4-26.2,11.4-30.2c1.2,2.2,8.8,23.9,11,30.7L524.4,303.2z M567.9,336.1
		c-4.8-9.3-11-26.1-13.8-33.8c-3.9-10.5-9.1-26.2-10.5-31.1l-0.9-2.6l-5.6,0.1c-1.7,0-9.5-0.2-12.5-0.4v1.6c2.7,0.3,5.4,0.7,8.1,1.3
		c-1.6,4.4-21.5,58-25.1,64.8c-2.8,0.6-5.7,1.1-8.6,1.4l-0.3,1.6c2.2-0.2,9-0.4,11.1-0.4c2.9,0,11,0.2,13.1,0.4l-0.4-1.6
		c-2.6-0.3-5.1-0.8-7.6-1.4c1.2-8.2,7.2-26.8,8-29.1c3.7-0.5,20.9-1.2,24.3-1.2c1.6,3.4,8.8,24.6,10.6,30.3
		c-3.3,0.7-6.7,1.2-10.1,1.4l-0.4,1.6c2.7-0.2,14-0.4,15.6-0.4c2.8,0,12.9,0.2,13.9,0.4l-0.3-1.6c-3-0.4-5.9-0.8-8.6-1.4
		L567.9,336.1z"/>
	<path class="st1" d="M405.2,133.7c-8.4,0-18.5-0.3-21.9-0.6l1,2.8c3.5,0.3,11.6,1.4,14.7,1.9c0.5,4.4,0.7,29.2,0.7,33.5v12.4
		c0,16.2-1.8,28.1-9,35.1c-4.6,4.4-10.5,6.6-19.5,6.6c-1.3,0-2.7-0.1-4-0.3l0.4,2.5l0,0l0.4,2.9h1.6c13.4,0,21.9-3.9,28.2-9.5
		c10.4-9.2,13.1-22.2,13.1-37.5c0-4.9-0.3-11.4-0.3-16.6v-6.6c0-3.6,0.3-20.6,0.7-22.6c3.5-0.8,7.1-1.4,9.5-1.9l0.8-2.8
		C419.4,133.4,412.2,133.7,405.2,133.7"/>
	<path class="st1" d="M347.9,209c-2.5-7.1-3.7-14.5-3.5-22.1v-18c0-11.6,0.3-28.8,0.7-31.1c4.4-0.8,10.4-1.5,14-1.9l0.7-2.8
		c-3.4,0.3-16.3,0.4-22.5,0.4l-9.3,0.1c0.3,2.7,0.6,13.1,0.7,23.4c2.8,8.1,5.7,16.5,8,22.8C339.1,186.5,343.4,198.2,347.9,209"/>
	<path class="st0" d="M367.6,227.6L367.6,227.6l-0.5-2.5c-8.4-1-15.6-6.6-18.6-14.5l-0.6-1.6c-4.4-10.8-8.8-22.4-11.2-29.1
		c-2.2-6.2-5.2-14.7-8-22.8c-3.7-10.6-7-20.7-7.9-24.1l-11.2,0.7c-2.3,0-13.7-0.3-17.9-0.6l0.1,2.9c3.7,0.4,7.4,0.9,11,1.8
		c-1.9,5.2-29.3,79.2-34.2,87.9c-3.9,0.9-7.8,1.5-11.8,1.9l-0.4,2.9c3.2-0.3,12.4-0.5,15.9-0.5c4,0,16.5,0.3,20.8,0.5l-0.5-2.9
		c-4-0.3-7.9-1-11.8-1.9c1.4-10.6,8.8-36.6,9.6-38.5c5.1-0.8,26.9-1.8,31.8-1.8c2.2,4,11.9,33.1,14.4,40.3c-4.6,1-9.2,1.6-13.9,1.9
		l-0.7,2.9c3.7-0.3,19.2-0.5,23.2-0.5s9.1,0,13.8,0.2l5,0.1c1.3,0,2.7,0.2,4,0.2l0,0L367.6,227.6z M292.2,180.7
		c1.4-4.5,10.3-28.3,14.6-40.6h0.3c2.4,7.6,11,32,14,41.1L292.2,180.7z"/>
</g>
</svg>
